<svg xmlns="http://www.w3.org/2000/svg" viewBox="0 0 366.31 91.8"><defs><style>.cls-1,.cls-2{fill:#fff;}.cls-1{fill-rule:evenodd;}</style></defs><title>Asset 38</title><g id="Layer_2" data-name="Layer 2"><g id="UniBTA"><g id="CORES"><g id="UniBTA-2" data-name="UniBTA"><path id="_Compound_Path_" data-name="&lt;Compound Path&gt;" class="cls-1" d="M308.74,91.8h15.54L328.15,81h18.09L350,91.8h16.34L344.93,39H330.12L308.74,91.8ZM337.42,55c1,3.28,2,6.27,3.21,9.85l1.75,5H332.16l1.83-5c1.24-3.43,2.26-6.5,3.28-9.85Z"/><polygon id="_Path_" data-name="&lt;Path&gt;" class="cls-1" points="280.91 91.8 295.94 91.8 295.94 51.9 312.72 51.9 312.72 38.97 264.13 38.97 264.13 51.9 280.91 51.9 280.91 91.8"/><path id="_Compound_Path_2" data-name="&lt;Compound Path&gt;" class="cls-1" d="M218.56,91.8H235.7c6.43,0,11.75-.87,15.77-2.7,6-2.7,9.19-7.44,9.19-13.57,0-5.84-2.85-10.51-10.22-13V62.4c5.18-2,8-5.19,8-10.15,0-4.74-2.55-8.17-6.35-10.29s-8.83-3-17.22-3H218.56V91.8Zm15-31.74V50.94h1.75c3.14,0,4.82.22,5.91.8a3.74,3.74,0,0,1,2.19,3.72c0,3.21-2.12,4.6-6.64,4.6Zm0,19.77V69.69h4.74c4.82,0,7.3,1.53,7.3,5.11a4.13,4.13,0,0,1-2.12,4c-1.24.66-3.43,1-7.73,1Z"/><rect id="_Path_2" data-name="&lt;Path&gt;" class="cls-2" x="191.29" y="51.9" width="15.47" height="39.9"/><path id="_Path_3" data-name="&lt;Path&gt;" class="cls-1" d="M143.07,91.8h15.48V66.67a7.7,7.7,0,0,1,5.07-2,4,4,0,0,1,3,1.09,5.1,5.1,0,0,1,1.1,3.67V91.8h15.47V67.06c0-5.63-1.25-9.07-3.75-11.49a14.26,14.26,0,0,0-9.85-3.67,18.83,18.83,0,0,0-11.17,3.91l-.16-.08V51.9H143.07Z"/><path id="_Path_4" data-name="&lt;Path&gt;" class="cls-1" d="M87.4,82.58c4.3,6,12.43,9.22,21.73,9.22,9.45,0,17.19-3.36,21.41-9,3.13-4.14,4.77-10.08,4.77-18.67V39H119.83V63.2c0,5.55-.86,9.14-2.65,11.33-1.64,2-4.22,3.28-7.74,3.28-3.91,0-6.64-1.56-8.2-3.75s-2.19-5.39-2.19-10.86V39H83V64.14C83,72.42,84.43,78.44,87.4,82.58Z"/></g><g id="CENTRO"><path class="cls-2" d="M93.57,23.17a5.25,5.25,0,0,1-4.18,1.61h-1c-3.33,0-5.47-2-5.47-5V10c0-2.95,2.14-5,5.47-5h1A5.33,5.33,0,0,1,93.6,6.64a3.48,3.48,0,0,1,.69,1,.33.33,0,0,1-.22.27l-1.19.58a.55.55,0,0,1-.29.09.25.25,0,0,1-.22-.12,4,4,0,0,0-3-1.67h-1A3.22,3.22,0,0,0,85.09,10V19.8a3.28,3.28,0,0,0,3.33,3.25h1a3.87,3.87,0,0,0,3-1.73.24.24,0,0,1,.22-.13.48.48,0,0,1,.29.1l1.19.57a.33.33,0,0,1,.22.28A3.46,3.46,0,0,1,93.57,23.17Z"/><path class="cls-2" d="M108.65,24.78H98.34c-.22,0-.31-.09-.31-.31V5.34c0-.22.09-.31.31-.31h10.31c.22,0,.31.09.31.31V6.5c0,.22-.09.32-.31.32h-8.2c-.22,0-.32.09-.32.31v6.41c0,.22.1.31.32.31h6.72c.22,0,.31.09.31.31v1.17c0,.22-.09.31-.31.31h-6.72c-.22,0-.32.1-.32.31v6.73c0,.22.1.31.32.31h8.2c.22,0,.31.09.31.31v1.17C109,24.69,108.87,24.78,108.65,24.78Z"/><path class="cls-2" d="M125.17,24.78h-1.48a.36.36,0,0,1-.28-.16L115.78,10.8c-.13-.22-.47-.88-.57-1.13l-.12,0c.06.76.09,4.81.09,7.29v7.48c0,.22-.09.31-.31.31h-1.48c-.22,0-.31-.09-.31-.31V5.34c0-.22.09-.31.31-.31h1.45a.33.33,0,0,1,.28.15l7.63,14c.1.16.47.88.57,1.13l.12,0c-.06-.76-.09-4.81-.09-7.29V5.34c0-.22.09-.31.31-.31h1.51c.22,0,.31.09.31.31V24.47C125.48,24.69,125.39,24.78,125.17,24.78Z"/><path class="cls-2" d="M139.4,6.82h-3.8c-.22,0-.31.09-.31.31V24.47c0,.22-.1.31-.32.31H133.5c-.22,0-.32-.09-.32-.31V7.13c0-.22-.09-.31-.31-.31h-3.8c-.22,0-.31-.1-.31-.32V5.34c0-.22.09-.31.31-.31H139.4c.22,0,.32.09.32.31V6.5A.28.28,0,0,1,139.4,6.82Z"/><path class="cls-2" d="M154,24.78h-1.69a.3.3,0,0,1-.29-.22l-3-8.73a.24.24,0,0,0-.25-.19h-4c-.22,0-.31.1-.31.31v8.52c0,.22-.1.31-.32.31H142.7c-.22,0-.31-.09-.31-.31V5.34c0-.22.09-.31.31-.31h6.1a5.1,5.1,0,0,1,5.49,5.43v.34a5.18,5.18,0,0,1-3,4.15c-.13.06-.19.13-.19.22a1.21,1.21,0,0,0,.13.38l2.82,8.19a4,4,0,0,1,.26.79C154.33,24.69,154.23,24.78,154,24.78Zm-1.82-14.64a3.36,3.36,0,0,0-3.39-3.32h-4c-.22,0-.31.09-.31.31v6.41c0,.22.09.31.31.31h4a3.38,3.38,0,0,0,3.39-3.39Z"/><path class="cls-2" d="M163.85,24.78h-1c-3.33,0-5.46-2-5.46-5V10c0-2.95,2.13-5,5.46-5h1c3.33,0,5.49,2,5.49,5V19.8C169.34,22.74,167.18,24.78,163.85,24.78ZM167.21,10a3.29,3.29,0,0,0-3.36-3.22h-1A3.22,3.22,0,0,0,159.54,10V19.8a3.29,3.29,0,0,0,3.33,3.25h1a3.35,3.35,0,0,0,3.36-3.25Z"/><path class="cls-2" d="M185.34,25.09h-1c-3.33,0-5.46-2.1-5.46-5.15V5.34c0-.22.09-.31.31-.31h1.51c.22,0,.31.09.31.31v14.6a3.34,3.34,0,0,0,3.33,3.36h1a3.4,3.4,0,0,0,3.36-3.36V5.34c0-.22.09-.31.31-.31h1.51c.22,0,.31.09.31.31v14.6C190.83,23,188.67,25.09,185.34,25.09Z"/><path class="cls-2" d="M207.51,24.78H206a.34.34,0,0,1-.28-.16L198.12,10.8c-.12-.22-.47-.88-.56-1.13l-.13,0c.07.76.1,4.81.1,7.29v7.48c0,.22-.1.31-.32.31h-1.47c-.22,0-.32-.09-.32-.31V5.34c0-.22.1-.31.32-.31h1.44a.32.32,0,0,1,.28.15l7.64,14c.09.16.47.88.56,1.13l.13,0c-.07-.76-.1-4.81-.1-7.29V5.34c0-.22.1-.31.32-.31h1.5c.22,0,.32.09.32.31V24.47C207.83,24.69,207.73,24.78,207.51,24.78Z"/><path class="cls-2" d="M213.74,24.78h-1.48c-.22,0-.31-.09-.31-.31V5.34c0-.22.09-.31.31-.31h1.48c.22,0,.31.09.31.31V24.47C214.05,24.69,214,24.78,213.74,24.78Z"/><path class="cls-2" d="M230.1,6.25l-5.59,18.31c0,.16-.15.22-.31.22h-1.13a.29.29,0,0,1-.32-.22L217.1,6.06a7.76,7.76,0,0,1-.22-.78c0-.16.13-.25.35-.25h1.6a.28.28,0,0,1,.31.21L223.32,20c.06.23.25,1,.31,1.26h.16c.06-.25.25-1,.31-1.26l4-14.73a.29.29,0,0,1,.32-.21H230c.22,0,.35.09.35.25A6.72,6.72,0,0,1,230.1,6.25Z"/><path class="cls-2" d="M243.86,24.78h-10.3c-.22,0-.31-.09-.31-.31V5.34c0-.22.09-.31.31-.31h10.3c.22,0,.32.09.32.31V6.5a.28.28,0,0,1-.32.32h-8.19c-.22,0-.32.09-.32.31v6.41c0,.22.1.31.32.31h6.72c.22,0,.31.09.31.31v1.17c0,.22-.09.31-.31.31h-6.72c-.22,0-.32.1-.32.31v6.73c0,.22.1.31.32.31h8.19c.22,0,.32.09.32.31v1.17C244.18,24.69,244.08,24.78,243.86,24.78Z"/><path class="cls-2" d="M259.92,24.78h-1.7a.3.3,0,0,1-.28-.22l-3-8.73a.23.23,0,0,0-.25-.19h-4a.27.27,0,0,0-.31.31v8.52c0,.22-.09.31-.31.31h-1.48c-.22,0-.31-.09-.31-.31V5.34c0-.22.09-.31.31-.31h6.09a5.11,5.11,0,0,1,5.5,5.43v.34a5.2,5.2,0,0,1-3,4.15c-.13.06-.19.13-.19.22a1.43,1.43,0,0,0,.12.38L260,23.74a3.79,3.79,0,0,1,.25.79C260.23,24.69,260.14,24.78,259.92,24.78ZM258.1,10.14a3.36,3.36,0,0,0-3.4-3.32h-4c-.21,0-.31.09-.31.31v6.41c0,.22.1.31.31.31h4a3.38,3.38,0,0,0,3.4-3.39Z"/><path class="cls-2" d="M269.37,24.78H268a5.25,5.25,0,0,1-4.24-1.64,3.13,3.13,0,0,1-.62-1,.29.29,0,0,1,.18-.25l1.2-.6a1,1,0,0,1,.28-.1.34.34,0,0,1,.25.16,3.72,3.72,0,0,0,2.95,1.7h1.35a3.3,3.3,0,0,0,3.4-3.25c0-2.16-2-3.1-4.24-4.08-2.42-1.06-5.12-2.22-5.12-5.71,0-2.95,2.13-5,5.46-5h.5a5.23,5.23,0,0,1,4.21,1.61,3.43,3.43,0,0,1,.69,1,.32.32,0,0,1-.22.27L273,8.43a1.48,1.48,0,0,1-.41.15.23.23,0,0,1-.22-.12,3.74,3.74,0,0,0-3-1.67h-.5A3.24,3.24,0,0,0,265.54,10c0,1.91,2.11,2.83,4.46,3.86s4.87,2.37,4.87,5.93C274.87,22.74,272.73,24.78,269.37,24.78Z"/><path class="cls-2" d="M280.18,24.78h-1.47c-.22,0-.31-.09-.31-.31V5.34c0-.22.09-.31.31-.31h1.47c.23,0,.32.09.32.31V24.47C280.5,24.69,280.41,24.78,280.18,24.78Z"/><path class="cls-2" d="M294.1,6.82h-3.8c-.22,0-.31.09-.31.31V24.47c0,.22-.1.31-.32.31H288.2c-.22,0-.32-.09-.32-.31V7.13c0-.22-.09-.31-.31-.31h-3.8a.28.28,0,0,1-.32-.32V5.34c0-.22.1-.31.32-.31H294.1c.22,0,.31.09.31.31V6.5C294.41,6.72,294.32,6.82,294.1,6.82Z"/><path class="cls-2" d="M308.58,24.78H307c-.16,0-.28-.06-.31-.22l-1.23-4.33c0-.16-.16-.19-.31-.19h-5.91c-.15,0-.28,0-.31.19l-1.23,4.33c0,.16-.15.22-.31.22h-1.6c-.22,0-.35-.09-.35-.25a4.25,4.25,0,0,1,.22-.79l5.62-18.5c0-.15.16-.21.32-.21h1.19a.29.29,0,0,1,.32.21l5.55,18.32a5.66,5.66,0,0,1,.29,1C308.93,24.69,308.8,24.78,308.58,24.78Zm-6-15c0-.16-.28-1-.34-1.23h-.13c-.06.25-.28,1-.34,1.23L299.54,18a.3.3,0,0,0,.34.29h4.53a.3.3,0,0,0,.34-.29ZM306.16.41l-3.61,2.64a.69.69,0,0,1-.44.15h-.85c-.12,0-.22-.06-.22-.15a.64.64,0,0,1,.07-.16l2-2.7a.42.42,0,0,1,.41-.19H306a.22.22,0,0,1,.25.22A.22.22,0,0,1,306.16.41Z"/><path class="cls-2" d="M323.41,24.78h-1.7a.3.3,0,0,1-.28-.22l-3-8.73a.24.24,0,0,0-.25-.19h-4c-.22,0-.32.1-.32.31v8.52c0,.22-.09.31-.31.31H312.1c-.22,0-.31-.09-.31-.31V5.34c0-.22.09-.31.31-.31h6.1a5.11,5.11,0,0,1,5.49,5.43v.34a5.18,5.18,0,0,1-3,4.15c-.13.06-.19.13-.19.22a1.21,1.21,0,0,0,.13.38l2.82,8.19a3.79,3.79,0,0,1,.25.79C323.72,24.69,323.63,24.78,323.41,24.78Zm-1.82-14.64a3.36,3.36,0,0,0-3.39-3.32h-4c-.22,0-.32.09-.32.31v6.41c0,.22.1.31.32.31h4a3.38,3.38,0,0,0,3.39-3.39Z"/><path class="cls-2" d="M328.85,24.78h-1.48c-.22,0-.31-.09-.31-.31V5.34c0-.22.09-.31.31-.31h1.48c.22,0,.31.09.31.31V24.47C329.16,24.69,329.07,24.78,328.85,24.78Z"/><path class="cls-2" d="M339.43,24.78h-1c-3.33,0-5.46-2-5.46-5V10c0-2.95,2.13-5,5.46-5h1c3.33,0,5.5,2,5.5,5V19.8C344.93,22.74,342.76,24.78,339.43,24.78ZM342.8,10a3.29,3.29,0,0,0-3.37-3.22h-1A3.22,3.22,0,0,0,335.13,10V19.8a3.29,3.29,0,0,0,3.33,3.25h1a3.35,3.35,0,0,0,3.37-3.25Z"/></g><g id="LOGO"><path id="_Path_5" data-name="&lt;Path&gt;" class="cls-1" d="M45.05,12.51V54.89c0,8.75-5.55,16.38-13.74,20.36-8.2-4-13.74-11.61-13.74-20.36V12.51L0,22.07V55.7H0c.41,17,13.45,31.33,31.3,36.1C49.15,87,62.2,72.72,62.6,55.7h0V22.07Z"/><polygon id="_Path_6" data-name="&lt;Path&gt;" class="cls-1" points="31.31 5.03 21.38 10.43 21.38 26.68 31.31 21.28 41.23 26.67 41.23 10.43 31.31 5.03"/><path id="_Path_7" data-name="&lt;Path&gt;" class="cls-1" d="M31.31,25.2l-9.93,5.41V55.43h0c.21,6.6,4.08,12.4,9.92,15.91C37.14,67.83,41,62,41.22,55.43h0V30.6Z"/></g></g></g></g></svg>