<?xml version="1.0" standalone="no"?>
<!DOCTYPE svg PUBLIC "-//W3C//DTD SVG 20010904//EN"
 "http://www.w3.org/TR/2001/REC-SVG-20010904/DTD/svg10.dtd">
<svg version="1.0" xmlns="http://www.w3.org/2000/svg"
 width="400.000000pt" height="265.000000pt" viewBox="0 0 400.000000 265.000000"
 preserveAspectRatio="xMidYMid meet">

<g transform="translate(0.000000,265.000000) scale(0.100000,-0.100000)"
fill="#000000" stroke="none">
<path d="M838 2273 c7 -3 16 -2 19 1 4 3 -2 6 -13 5 -11 0 -14 -3 -6 -6z"/>
<path d="M1455 2200 c-4 -6 -1 -17 5 -25 9 -11 9 -15 1 -15 -6 0 -11 -7 -11
-15 0 -8 5 -15 11 -15 5 0 7 5 4 10 -3 6 2 10 11 10 15 0 15 -3 -4 -23 -12
-13 -22 -26 -22 -30 0 -10 24 -4 32 8 5 6 8 6 8 -2 0 -7 -8 -17 -17 -22 -17
-10 -17 -10 0 -11 9 0 17 -4 17 -9 0 -5 -8 -12 -17 -14 -14 -4 -13 -5 4 -6 20
-1 22 4 21 42 0 63 1 69 15 62 6 -4 5 -1 -3 7 -9 7 -15 22 -13 33 1 11 0 14
-3 8 -3 -7 -13 -13 -22 -12 -11 0 -12 2 -4 6 14 6 16 23 3 23 -6 0 -13 -5 -16
-10z"/>
<path d="M755 2176 c-23 -34 -7 -60 49 -81 47 -18 60 -33 46 -55 -6 -9 -22
-11 -59 -7 -53 6 -75 -5 -42 -22 30 -16 97 -13 115 5 19 18 21 70 4 81 -7 4
-31 15 -53 23 -53 21 -53 45 0 46 59 2 62 3 41 19 -32 24 -83 19 -101 -9z"/>
<path d="M921 2174 c-31 -39 -29 -117 4 -149 33 -34 83 -34 116 1 19 20 24 37
24 74 0 64 -31 100 -86 100 -29 0 -42 -6 -58 -26z m113 -48 c12 -32 -1 -74
-29 -92 -16 -11 -25 -11 -45 -1 -22 11 -25 19 -25 67 0 48 3 56 25 67 31 15
60 -1 74 -41z"/>
<path d="M1147 2192 c-9 -13 -67 -175 -67 -184 0 -17 28 -7 33 12 4 16 14 20
45 20 32 0 42 -4 47 -20 3 -11 13 -20 21 -20 17 0 17 0 -25 116 -27 74 -43 96
-54 76z m31 -89 c11 -32 10 -33 -20 -33 -23 0 -29 3 -24 16 3 9 9 27 12 41 8
28 17 21 32 -24z"/>
<path d="M1252 2103 c2 -66 7 -98 16 -101 8 -2 12 9 12 37 0 41 0 41 38 41 52
0 75 19 74 61 -1 44 -24 59 -89 59 l-54 0 3 -97z m107 53 c21 -25 2 -46 -40
-46 -37 0 -39 2 -39 30 0 27 3 30 34 30 18 0 39 -6 45 -14z"/>
<path d="M1450 2015 c0 -8 5 -15 11 -15 5 0 7 5 4 10 -3 6 2 10 11 10 16 0 15
-2 -2 -21 -18 -20 -30 -84 -14 -74 5 3 11 1 15 -5 11 -18 25 -11 25 14 0 16
-7 26 -22 31 l-23 7 23 6 c13 4 23 10 23 15 -2 23 0 27 11 21 7 -4 8 -3 4 4
-11 18 -66 15 -66 -3z"/>
<path d="M1682 1943 l-43 -15 2 -349 2 -349 44 0 c40 0 43 2 43 27 l0 26 23
-20 c37 -33 83 -46 143 -40 66 7 94 23 134 79 40 55 53 106 52 203 0 94 -27
177 -70 218 -33 32 -91 57 -132 57 -35 0 -96 -23 -122 -47 -17 -15 -18 -11
-18 105 0 67 -3 122 -7 121 -5 0 -27 -7 -51 -16z m239 -280 c45 -27 63 -76 63
-168 0 -83 -13 -123 -50 -156 -49 -44 -137 -27 -174 33 -16 27 -20 50 -20 126
0 100 12 138 52 166 30 21 93 20 129 -1z"/>
<path d="M1784 1518 c-4 -6 0 -16 9 -23 22 -16 21 -22 0 -28 -16 -4 -16 -5 -1
-6 9 0 20 4 23 9 5 8 11 7 21 -1 12 -10 17 -9 27 0 9 10 8 11 -4 6 -23 -8 -34
12 -18 31 12 14 14 14 26 -2 7 -10 13 -13 13 -7 0 6 -7 17 -16 24 -14 12 -19
11 -31 -8 -14 -21 -43 -22 -43 -1 0 5 5 6 12 2 7 -4 8 -3 4 4 -9 15 -13 15
-22 0z"/>
<path d="M1896 1505 c-10 -26 -7 -32 14 -38 18 -4 20 -2 14 16 -9 32 -20 41
-28 22z"/>
<path d="M1825 1420 c3 -5 12 -7 20 -3 21 7 19 13 -6 13 -11 0 -18 -4 -14 -10z"/>
<path d="M1883 1423 c9 -2 23 -2 30 0 6 3 -1 5 -18 5 -16 0 -22 -2 -12 -5z"/>
<path d="M2078 1943 c7 -3 16 -2 19 1 4 3 -2 6 -13 5 -11 0 -14 -3 -6 -6z"/>
<path d="M1148 1933 c7 -3 16 -2 19 1 4 3 -2 6 -13 5 -11 0 -14 -3 -6 -6z"/>
<path d="M270 1918 c0 -7 40 -164 88 -348 l88 -335 49 0 49 0 67 238 c36 131
68 240 71 242 4 4 84 -272 136 -467 3 -14 15 -18 53 -18 47 0 48 1 58 38 5 20
46 174 90 342 45 168 81 309 81 313 0 4 -23 7 -50 7 -43 0 -52 -3 -58 -22 -5
-13 -33 -125 -63 -250 -30 -125 -56 -228 -59 -228 -3 0 -34 111 -70 248 l-66
247 -49 0 -50 0 -66 -245 c-37 -135 -68 -247 -69 -250 -1 -3 -29 108 -63 245
l-62 250 -53 3 c-38 2 -52 -1 -52 -10z"/>
<path d="M1173 1916 c-4 -7 -15 -15 -23 -18 -8 -3 3 -5 25 -5 22 0 32 2 22 5
-14 3 -16 7 -6 18 8 9 8 14 1 14 -6 0 -15 -6 -19 -14z"/>
<path d="M1234 1919 c-3 -6 -1 -16 5 -22 9 -9 11 -8 5 6 -5 13 -2 16 10 11 9
-3 16 -4 16 -1 0 11 -30 16 -36 6z"/>
<path d="M2131 1914 c0 -11 3 -14 6 -6 3 7 2 16 -1 19 -3 4 -6 -2 -5 -13z"/>
<path d="M1813 1886 c14 -21 14 -26 1 -45 -8 -11 -11 -21 -6 -21 6 0 13 7 16
17 6 14 8 14 21 -3 17 -22 20 -12 5 16 -7 13 -7 21 0 25 5 3 10 14 10 23 0 13
-2 13 -14 -4 -14 -18 -15 -18 -21 -1 -4 9 -12 17 -17 17 -6 0 -3 -11 5 -24z"/>
<path d="M1881 1863 c1 -28 4 -37 6 -23 l5 24 13 -23 13 -24 13 24 13 24 7
-25 c5 -19 7 -14 8 23 1 55 -9 60 -28 15 l-13 -33 -14 33 c-8 17 -16 32 -19
32 -3 0 -4 -21 -4 -47z"/>
<path d="M1972 1868 c-2 -46 -1 -48 26 -47 22 1 23 2 5 6 -18 3 -23 13 -26 46
l-4 42 -1 -47z"/>
<path d="M1490 1891 c0 -5 -12 -12 -27 -14 -26 -4 -26 -4 5 -6 22 -1 32 3 32
14 0 8 -2 15 -5 15 -3 0 -5 -4 -5 -9z"/>
<path d="M2065 1890 c-3 -5 1 -10 9 -10 9 0 16 5 16 10 0 6 -4 10 -9 10 -6 0
-13 -4 -16 -10z"/>
<path d="M2261 1884 c0 -11 3 -14 6 -6 3 7 2 16 -1 19 -3 4 -6 -2 -5 -13z"/>
<path d="M1535 1880 c-4 -6 3 -10 14 -10 25 0 27 6 6 13 -8 4 -17 2 -20 -3z"/>
<path d="M2070 1830 c0 -11 4 -20 9 -20 5 0 7 9 4 20 -3 11 -7 20 -9 20 -2 0
-4 -9 -4 -20z"/>
<path d="M2191 1824 c0 -11 3 -14 6 -6 3 7 2 16 -1 19 -3 4 -6 -2 -5 -13z"/>
<path d="M1574 1781 c0 -36 3 -45 11 -37 14 13 15 46 3 46 -5 0 -7 4 -4 8 2 4
1 13 -3 20 -4 6 -7 -10 -7 -37z"/>
<path d="M2261 1814 c0 -11 3 -14 6 -6 3 7 2 16 -1 19 -3 4 -6 -2 -5 -13z"/>
<path d="M860 1800 c-9 -6 -10 -10 -3 -10 6 0 15 5 18 10 8 12 4 12 -15 0z"/>
<path d="M2664 1788 c-4 -5 -3 -12 0 -15 3 -4 6 0 6 8 0 11 2 12 9 1 7 -11 9
-11 14 0 6 16 -20 21 -29 6z"/>
<path d="M2715 1789 c-10 -15 3 -25 16 -12 7 7 7 13 1 17 -6 3 -14 1 -17 -5z"/>
<path d="M1140 1779 c0 -5 5 -7 10 -4 6 3 10 8 10 11 0 2 -4 4 -10 4 -5 0 -10
-5 -10 -11z"/>
<path d="M1185 1780 c-3 -6 1 -7 9 -4 18 7 21 14 7 14 -6 0 -13 -4 -16 -10z"/>
<path d="M3138 1783 c7 -3 16 -2 19 1 4 3 -2 6 -13 5 -11 0 -14 -3 -6 -6z"/>
<path d="M858 1773 c7 -3 16 -2 19 1 4 3 -2 6 -13 5 -11 0 -14 -3 -6 -6z"/>
<path d="M1285 1768 c-114 -40 -175 -184 -146 -343 16 -88 55 -144 120 -177
72 -37 138 -37 208 -3 77 39 83 50 46 87 l-31 30 -30 -22 c-86 -63 -198 -16
-217 93 l-7 37 176 0 176 0 0 48 c0 181 -144 303 -295 250z m121 -93 c25 -10
40 -26 54 -57 32 -70 34 -68 -104 -68 l-124 0 10 40 c12 44 48 87 81 93 40 8
47 7 83 -8z"/>
<path d="M2600 1746 c0 -9 6 -16 13 -16 7 0 8 -3 2 -8 -16 -11 -17 -68 -3 -80
11 -8 14 -7 14 8 0 10 -4 16 -8 14 -11 -7 -10 9 2 41 8 20 7 30 -5 41 -13 14
-15 14 -15 0z"/>
<path d="M2211 1723 c-1 -23 4 -33 14 -33 8 0 15 7 15 15 0 8 5 15 10 15 6 0
10 -6 10 -13 0 -8 17 -13 50 -14 50 -2 50 -2 50 29 0 30 -1 30 -24 15 -16 -11
-27 -12 -34 -5 -6 6 -12 6 -16 -1 -5 -7 -15 -6 -32 5 -23 16 -24 16 -25 -12
l-1 -29 -8 30 -8 30 -1 -32z m85 -20 c-10 -10 -19 5 -10 18 6 11 8 11 12 0 2
-7 1 -15 -2 -18z m54 6 c0 -5 -4 -9 -10 -9 -5 0 -10 7 -10 16 0 8 5 12 10 9 6
-3 10 -10 10 -16z"/>
<path d="M2095 1732 c-3 -3 -5 -15 -4 -26 0 -19 1 -19 11 4 l11 25 7 -25 8
-25 1 24 1 25 20 -22 c12 -12 26 -22 33 -22 7 0 6 4 -3 10 -13 8 -12 10 3 10
9 0 17 4 17 9 0 17 -20 23 -35 11 -9 -7 -15 -8 -15 -2 0 10 -45 14 -55 4z"/>
<path d="M2467 1703 c-4 -24 -3 -25 7 -11 12 16 14 16 30 0 16 -16 17 -16 10
1 -8 21 0 22 20 1 15 -14 16 -14 16 4 0 15 -6 19 -27 16 -15 -1 -33 2 -39 7
-8 7 -13 1 -17 -18z"/>
<path d="M2940 1710 c0 -15 7 -20 24 -20 28 0 41 14 30 32 -5 8 -10 6 -15 -8
-7 -17 -8 -17 -8 -1 -1 24 -31 22 -31 -3z"/>
<path d="M3055 1720 c-4 -6 -12 -7 -18 -4 -9 5 -9 4 0 -6 9 -10 15 -10 28 4 9
9 12 16 6 16 -5 0 -13 -5 -16 -10z"/>
<path d="M2393 1705 c-3 -9 -3 -18 -1 -21 3 -3 8 4 11 16 6 23 -1 27 -10 5z"/>
<path d="M3615 1710 c3 -5 13 -10 21 -10 9 0 12 -5 8 -12 -4 -7 -3 -8 4 -4 17
10 3 36 -20 36 -10 0 -16 -4 -13 -10z"/>
<path d="M3135 1688 c2 -24 19 -35 30 -19 3 7 0 8 -10 5 -11 -4 -14 -2 -9 9 3
8 1 17 -4 21 -5 3 -8 -5 -7 -16z"/>
<path d="M3039 1688 c-6 -24 -5 -70 2 -74 5 -3 7 -10 4 -15 -3 -5 1 -6 9 -3 9
3 16 1 16 -4 0 -6 -12 -13 -27 -15 -27 -4 -26 -4 4 -6 31 -1 31 0 30 43 -1 36
-5 46 -22 51 -19 6 -19 7 5 15 24 8 24 8 3 9 -13 1 -23 0 -24 -1z m31 -58 c0
-5 -7 -10 -16 -10 -8 0 -12 5 -9 10 3 6 10 10 16 10 5 0 9 -4 9 -10z"/>
<path d="M2780 1669 c0 -5 5 -7 10 -4 6 3 10 8 10 11 0 2 -4 4 -10 4 -5 0 -10
-5 -10 -11z"/>
<path d="M2940 1668 c0 -13 7 -18 28 -17 21 1 22 2 7 6 -11 3 -23 10 -27 17
-5 7 -8 5 -8 -6z"/>
<path d="M3615 1670 c-3 -5 -1 -10 4 -10 6 0 11 5 11 10 0 6 -2 10 -4 10 -3 0
-8 -4 -11 -10z"/>
<path d="M2700 1652 c0 -4 10 -9 22 -9 18 -2 20 0 8 7 -18 12 -30 13 -30 2z"/>
<path d="M3495 1650 c-3 -5 -1 -10 4 -10 6 0 11 5 11 10 0 6 -2 10 -4 10 -3 0
-8 -4 -11 -10z"/>
<path d="M2668 1643 c7 -3 16 -2 19 1 4 3 -2 6 -13 5 -11 0 -14 -3 -6 -6z"/>
<path d="M3145 1637 c-5 -7 -10 -28 -11 -48 0 -29 3 -36 15 -31 10 4 12 1 6
-9 -7 -12 -6 -12 6 -1 12 11 12 15 -3 26 -17 13 -14 61 3 50 5 -3 6 2 3 10 -7
19 -6 19 -19 3z"/>
<path d="M3385 1641 c-3 -5 -2 -12 3 -15 5 -3 9 1 9 9 0 17 -3 19 -12 6z"/>
<path d="M2843 1621 c0 -11 5 -18 9 -15 4 3 5 11 1 19 -7 21 -12 19 -10 -4z"/>
<path d="M2882 1620 c0 -14 2 -19 5 -12 2 6 2 18 0 25 -3 6 -5 1 -5 -13z"/>
<path d="M2958 1633 c12 -2 22 -8 22 -13 0 -5 -10 -11 -22 -13 -16 -4 -13 -5
7 -4 19 1 30 7 30 17 0 10 -11 16 -30 17 -20 1 -23 0 -7 -4z"/>
<path d="M2536 1621 c-4 -7 -5 -15 -2 -18 9 -9 19 4 14 18 -4 11 -6 11 -12 0z"/>
<path d="M2497 1609 c7 -7 15 -10 18 -7 3 3 -2 9 -12 12 -14 6 -15 5 -6 -5z"/>
<path d="M2681 1613 c-1 -17 16 -25 25 -12 4 7 3 9 -4 5 -5 -3 -13 0 -15 6 -4
9 -6 10 -6 1z"/>
<path d="M2740 1611 c0 -7 -5 -9 -12 -5 -7 5 -8 3 -3 -5 5 -9 10 -10 18 -2 6
6 8 14 4 18 -4 3 -7 1 -7 -6z"/>
<path d="M3243 1613 c15 -2 37 -2 50 0 12 2 0 4 -28 4 -27 0 -38 -2 -22 -4z"/>
<path d="M3630 1616 c0 -2 7 -7 16 -10 8 -3 12 -2 9 4 -6 10 -25 14 -25 6z"/>
<path d="M2924 1579 c-3 -5 11 -9 30 -9 20 0 36 3 36 8 0 10 -59 11 -66 1z"/>
<path d="M2110 1539 c0 -38 1 -41 13 -24 13 17 14 17 29 -4 14 -20 15 -19 14
22 -1 38 -3 42 -28 45 -27 3 -28 1 -28 -39z m50 16 c0 -8 -9 -15 -20 -15 -20
0 -26 11 -13 23 12 13 33 7 33 -8z"/>
<path d="M2187 1574 c-4 -4 -7 -23 -7 -43 1 -29 2 -33 11 -18 5 9 19 17 30 17
15 0 20 6 17 23 -3 22 -36 36 -51 21z m43 -19 c0 -8 -9 -15 -20 -15 -20 0 -26
11 -13 23 12 13 33 7 33 -8z"/>
<path d="M2260 1566 c-26 -32 13 -97 41 -69 8 8 7 11 -6 10 -22 -2 -40 25 -31
48 4 11 13 15 26 12 11 -3 18 -1 14 4 -8 14 -30 11 -44 -5z"/>
<path d="M3635 1562 c-11 -4 -21 -13 -23 -20 -1 -9 5 -8 23 4 20 13 34 28 23
23 -2 -1 -12 -4 -23 -7z"/>
<path d="M2938 1555 c-13 -13 4 -35 27 -35 24 0 41 25 24 35 -5 4 -8 1 -7 -6
2 -7 -4 -14 -14 -16 -9 -3 -18 3 -20 12 -1 9 -6 14 -10 10z"/>
<path d="M3034 1548 c-4 -7 -4 -10 1 -6 4 4 13 0 20 -9 9 -13 14 -13 20 -3 5
9 4 11 -3 6 -7 -4 -12 -3 -12 3 0 5 6 12 13 14 6 3 2 6 -10 6 -12 1 -25 -5
-29 -11z"/>
<path d="M2841 1534 c0 -11 3 -14 6 -6 3 7 2 16 -1 19 -3 4 -6 -2 -5 -13z"/>
<path d="M3622 1525 c-11 -13 -10 -15 6 -15 10 0 19 7 19 15 0 19 -8 19 -25 0z"/>
<path d="M3138 1523 c7 -3 16 -2 19 1 4 3 -2 6 -13 5 -11 0 -14 -3 -6 -6z"/>
<path d="M3040 1508 c6 -7 6 -16 -1 -25 -8 -9 -8 -17 0 -27 9 -10 9 -16 1 -21
-8 -5 -8 -10 0 -20 8 -10 8 -15 0 -20 -12 -7 5 -35 22 -35 16 0 21 32 7 41
-10 6 -8 9 9 9 22 0 22 1 7 16 -9 9 -13 25 -10 38 2 11 2 15 -1 9 -7 -15 -34
-18 -34 -4 0 5 6 11 13 14 9 3 7 9 -5 21 -10 9 -14 11 -8 4z m30 -78 c0 -5 -7
-10 -16 -10 -8 0 -12 5 -9 10 3 6 10 10 16 10 5 0 9 -4 9 -10z m0 -50 c0 -5
-4 -10 -9 -10 -6 0 -13 5 -16 10 -3 6 1 10 9 10 9 0 16 -4 16 -10z"/>
<path d="M2700 1500 c0 -5 5 -10 11 -10 5 0 7 5 4 10 -3 6 -8 10 -11 10 -2 0
-4 -4 -4 -10z"/>
<path d="M2780 1506 c0 -2 7 -9 15 -16 13 -11 14 -10 9 4 -5 14 -24 23 -24 12z"/>
<path d="M2940 1490 c0 -15 7 -20 24 -20 28 0 41 14 30 32 -5 8 -10 6 -15 -8
-7 -17 -8 -17 -8 -1 -1 24 -31 22 -31 -3z"/>
<path d="M2610 1490 c0 -5 5 -10 11 -10 5 0 7 5 4 10 -3 6 -8 10 -11 10 -2 0
-4 -4 -4 -10z"/>
<path d="M2704 1466 c1 -8 5 -18 8 -22 4 -3 5 1 4 10 -1 8 -5 18 -8 22 -4 3
-5 -1 -4 -10z"/>
<path d="M3490 1461 c0 -11 -4 -23 -10 -26 -5 -3 -10 3 -10 14 0 12 -4 21 -10
21 -11 0 -13 -11 -4 -34 3 -9 15 -16 25 -16 14 0 19 7 19 30 0 17 -2 30 -5 30
-3 0 -5 -9 -5 -19z"/>
<path d="M3512 1463 c2 -9 10 -19 18 -21 13 -4 13 -3 2 10 -10 13 -10 17 0 21
8 3 6 6 -5 6 -12 1 -17 -5 -15 -16z"/>
<path d="M3568 1473 c-10 -2 -18 -11 -18 -19 0 -8 -10 -19 -22 -24 -20 -8 -18
-9 12 -7 24 1 37 8 40 20 7 25 24 23 30 -4 5 -21 6 -21 18 5 12 28 32 27 32
-1 0 -9 -6 -13 -15 -9 -8 3 -15 1 -15 -4 0 -6 5 -10 11 -10 5 0 7 -5 3 -11 -4
-7 -1 -10 7 -7 8 2 15 21 17 41 3 32 0 37 -17 37 -12 0 -21 -5 -21 -12 0 -9
-3 -9 -12 0 -12 12 -20 13 -50 5z"/>
<path d="M3228 1464 c-11 -10 -10 -94 0 -94 4 0 8 12 7 27 0 14 6 28 13 30 8
3 12 -6 12 -26 0 -31 14 -49 25 -31 3 5 1 10 -5 10 -6 0 -10 15 -8 35 1 19 -1
37 -5 41 -4 4 -7 2 -7 -4 0 -18 -18 -14 -22 4 -2 9 -6 12 -10 8z"/>
<path d="M2185 1450 c-3 -5 -1 -10 4 -10 6 0 11 5 11 10 0 6 -2 10 -4 10 -3 0
-8 -4 -11 -10z"/>
<path d="M2930 1452 c-5 -2 -3 -10 5 -18 14 -15 10 -43 -9 -56 -6 -4 7 -7 29
-6 23 0 30 3 18 5 -28 5 -30 23 -3 23 27 0 25 28 -2 33 l-23 4 23 2 c12 0 22
4 22 9 0 7 -41 10 -60 4z"/>
<path d="M1025 1440 c-7 -11 22 -26 32 -16 4 3 -1 6 -11 6 -9 0 -14 5 -11 10
3 6 4 10 1 10 -3 0 -8 -5 -11 -10z"/>
<path d="M2255 1440 c-3 -5 3 -15 15 -22 26 -17 25 -26 -2 -31 -21 -4 -21 -4
3 -6 14 0 30 4 37 11 9 9 12 9 12 0 0 -7 8 -12 18 -11 11 0 12 2 4 6 -10 4 -9
8 4 17 18 14 12 36 -11 36 -7 0 -16 -7 -19 -15 -5 -13 -10 -14 -28 -4 -22 12
-22 12 -3 20 19 7 19 8 -2 8 -12 1 -25 -3 -28 -9z m90 -20 c3 -5 1 -10 -4 -10
-6 0 -11 5 -11 10 0 6 2 10 4 10 3 0 8 -4 11 -10z"/>
<path d="M2605 1434 c-21 -22 -2 -46 34 -42 19 2 26 9 27 26 1 18 1 19 -3 2
-6 -26 -23 -26 -23 -1 0 28 -15 34 -35 15z m25 -19 c0 -8 -4 -15 -10 -15 -5 0
-10 7 -10 15 0 8 5 15 10 15 6 0 10 -7 10 -15z"/>
<path d="M2367 1421 c-2 -10 -1 -25 4 -32 6 -10 9 -6 9 14 0 15 5 27 10 27 6
0 15 -12 21 -27 l11 -28 13 25 14 25 1 -25 c1 -14 4 -19 7 -12 4 10 8 10 19 1
7 -6 19 -9 26 -6 8 3 6 6 -5 6 -12 1 -17 7 -15 19 2 9 10 16 17 14 7 -1 10 2
6 8 -5 7 -11 8 -19 1 -7 -6 -22 -8 -34 -4 -15 3 -22 1 -22 -8 -1 -10 -4 -8
-11 4 -13 23 -45 22 -52 -2z"/>
<path d="M2524 1425 c-9 -22 3 -45 23 -44 16 0 16 1 -1 8 -19 7 -19 8 2 13 15
4 20 11 16 22 -8 20 -33 21 -40 1z"/>
<path d="M2775 1420 c-10 -11 -13 -20 -7 -20 6 0 13 6 15 13 4 9 8 8 16 -3 12
-17 15 -1 3 18 -7 9 -13 8 -27 -8z"/>
<path d="M3157 1433 c-14 -13 -7 -61 10 -67 25 -10 47 17 39 48 -6 25 -33 35
-49 19z m40 -19 c3 -8 -1 -23 -10 -32 -15 -14 -17 -14 -23 1 -8 21 1 47 16 47
6 0 13 -7 17 -16z"/>
<path d="M3307 1433 c-4 -3 -7 -19 -7 -34 0 -30 26 -47 44 -28 8 8 6 10 -8 7
-10 -1 -21 3 -23 10 -3 7 5 12 22 12 23 0 24 2 15 20 -11 20 -31 26 -43 13z
m33 -13 c0 -5 -7 -10 -15 -10 -8 0 -15 5 -15 10 0 6 7 10 15 10 8 0 15 -4 15
-10z"/>
<path d="M3371 1403 c1 -36 2 -36 8 -9 9 42 29 44 34 4 l4 -33 1 38 c2 33 0
37 -23 37 -22 0 -25 -4 -24 -37z"/>
<path d="M2700 1415 c0 -8 4 -15 10 -15 5 0 7 7 4 15 -4 8 -8 15 -10 15 -2 0
-4 -7 -4 -15z"/>
<path d="M2202 1400 c0 -14 2 -19 5 -12 2 6 2 18 0 25 -3 6 -5 1 -5 -13z"/>
<path d="M1030 1395 c0 -8 7 -15 15 -15 8 0 15 4 15 9 0 5 -7 11 -15 15 -9 3
-15 0 -15 -9z"/>
<path d="M2110 1389 c0 -5 5 -7 10 -4 6 3 10 8 10 11 0 2 -4 4 -10 4 -5 0 -10
-5 -10 -11z"/>
<path d="M2155 1389 c-4 -6 -4 -13 -1 -16 3 -4 6 -1 6 6 0 8 6 11 16 7 8 -3
12 -2 9 4 -8 13 -22 13 -30 -1z"/>
<path d="M2626 1355 c-14 -13 -22 -27 -16 -30 5 -3 15 3 22 15 17 26 26 25 31
-2 4 -20 4 -20 6 4 2 37 -12 42 -43 13z"/>
<path d="M1034 1342 c2 -9 7 -17 13 -19 14 -5 12 25 -3 31 -7 3 -11 -2 -10
-12z"/>
<path d="M2231 1344 c0 -11 3 -14 6 -6 3 7 2 16 -1 19 -3 4 -6 -2 -5 -13z"/>
<path d="M2710 1345 c-10 -12 -10 -19 -2 -27 7 -7 12 -10 13 -7 0 2 2 14 5 27
5 26 1 28 -16 7z"/>
<path d="M2941 1344 c-1 -27 21 -37 46 -19 14 11 16 16 6 26 -11 11 -13 10
-13 -4 0 -22 -27 -22 -33 1 -4 13 -5 12 -6 -4z"/>
<path d="M3631 1344 c0 -11 3 -14 6 -6 3 7 2 16 -1 19 -3 4 -6 -2 -5 -13z"/>
<path d="M2433 1343 c9 -2 23 -2 30 0 6 3 -1 5 -18 5 -16 0 -22 -2 -12 -5z"/>
<path d="M2810 1336 c4 -4 16 -4 26 2 16 9 14 10 -8 9 -15 -1 -23 -6 -18 -11z"/>
<path d="M3103 1334 c-6 -16 16 -38 27 -27 3 3 -1 8 -7 10 -7 3 -13 9 -13 14
0 6 5 7 12 3 7 -4 8 -3 4 4 -10 16 -15 15 -23 -4z"/>
<path d="M1091 1324 c0 -11 3 -14 6 -6 3 7 2 16 -1 19 -3 4 -6 -2 -5 -13z"/>
<path d="M3365 1330 c-3 -5 -1 -10 4 -10 6 0 11 5 11 10 0 6 -2 10 -4 10 -3 0
-8 -4 -11 -10z"/>
<path d="M3463 1333 c-15 -5 -17 -33 -3 -33 6 0 10 7 10 16 0 13 3 14 14 5 8
-7 17 -8 20 -3 7 11 -23 21 -41 15z"/>
<path d="M3547 1321 c3 -12 9 -21 14 -21 14 0 11 16 -5 29 -12 10 -13 8 -9 -8z"/>
<path d="M3141 1314 c0 -11 3 -14 6 -6 3 7 2 16 -1 19 -3 4 -6 -2 -5 -13z"/>
<path d="M3205 1321 c-3 -5 -2 -12 3 -15 5 -3 9 1 9 9 0 17 -3 19 -12 6z"/>
<path d="M3279 1318 c14 -19 32 -15 30 5 0 8 -2 8 -6 -1 -4 -10 -8 -10 -21 0
-15 12 -16 11 -3 -4z"/>
<path d="M3326 1318 c3 -5 10 -6 15 -3 13 9 11 12 -6 12 -8 0 -12 -4 -9 -9z"/>
<path d="M3411 1314 c0 -11 3 -14 6 -6 3 7 2 16 -1 19 -3 4 -6 -2 -5 -13z"/>
<path d="M2205 1310 c-4 -6 -2 -17 5 -24 8 -11 8 -15 -2 -19 -9 -4 -9 -6 -1
-6 18 -1 26 18 14 33 -6 7 -8 16 -4 19 3 4 4 7 0 7 -3 0 -9 -5 -12 -10z"/>
<path d="M3050 1310 c0 -5 5 -10 11 -10 5 0 7 5 4 10 -3 6 -8 10 -11 10 -2 0
-4 -4 -4 -10z"/>
<path d="M3520 1310 c0 -5 5 -10 11 -10 5 0 7 5 4 10 -3 6 -8 10 -11 10 -2 0
-4 -4 -4 -10z"/>
<path d="M1017 1295 c-4 -9 -1 -15 10 -15 12 0 13 -3 3 -15 -10 -12 -9 -16 4
-21 9 -3 13 -10 10 -15 -3 -5 -10 -6 -16 -3 -7 4 -8 2 -4 -4 9 -15 36 -4 36
14 0 8 -7 14 -16 14 -8 0 -12 5 -9 10 4 6 12 7 18 3 7 -3 3 4 -8 18 -11 13
-20 25 -21 27 -1 2 -4 -4 -7 -13z"/>
<path d="M2081 1288 c1 -17 2 -19 6 -5 2 9 9 17 14 17 5 0 9 -8 10 -17 0 -14
2 -15 6 -3 3 8 11 18 17 22 6 4 -4 8 -21 8 -28 0 -33 -4 -32 -22z"/>
<path d="M2170 1300 c0 -5 5 -10 10 -10 6 0 10 5 10 10 0 6 -4 10 -10 10 -5 0
-10 -4 -10 -10z"/>
<path d="M2297 1283 c-4 -23 8 -33 15 -12 3 8 10 6 21 -5 15 -16 18 -16 23 -1
5 11 10 13 19 5 9 -8 11 -5 8 13 -4 20 -11 24 -43 24 -32 0 -39 -4 -43 -24z
m53 7 c0 -5 -4 -10 -10 -10 -5 0 -10 5 -10 10 0 6 5 10 10 10 6 0 10 -4 10
-10z"/>
<path d="M2520 1300 c-13 -8 -13 -10 2 -10 9 0 20 5 23 10 8 13 -5 13 -25 0z"/>
<path d="M2624 1301 c38 -8 47 -31 12 -31 -14 0 -26 -4 -26 -10 0 -14 33 -13
48 2 7 7 12 20 12 30 0 14 -8 18 -37 17 -36 -1 -36 -2 -9 -8z"/>
<path d="M2940 1298 c0 -13 7 -18 28 -17 21 1 22 2 7 6 -11 3 -23 10 -27 17
-5 7 -8 5 -8 -6z"/>
<path d="M2843 1293 c-7 -3 -13 -16 -13 -29 0 -19 5 -24 24 -24 28 0 39 11 30
33 -6 18 -24 26 -41 20z"/>
<path d="M2705 1260 c-8 -13 4 -32 16 -25 12 8 12 35 0 35 -6 0 -13 -4 -16
-10z"/>
<path d="M2940 1253 c0 -15 2 -16 10 -3 8 13 10 12 10 -3 0 -12 6 -17 18 -15
28 5 20 33 -10 36 -22 3 -28 -1 -28 -15z m50 3 c0 -3 -4 -8 -10 -11 -5 -3 -10
-1 -10 4 0 6 5 11 10 11 6 0 10 -2 10 -4z"/>
<path d="M3210 1260 c-8 -6 -10 -10 -5 -10 6 0 3 -5 -5 -10 -13 -8 -13 -10 2
-10 9 0 20 5 24 11 4 8 9 7 15 -2 5 -8 9 -9 9 -3 0 20 -24 34 -40 24z"/>
<path d="M3575 1260 c3 -5 -1 -10 -7 -13 -7 -2 -1 -4 14 -3 33 1 37 11 8 19
-11 3 -18 1 -15 -3z"/>
<path d="M3116 1253 c-3 -4 -6 -11 -6 -17 0 -6 4 -5 9 3 8 12 15 13 34 4 17
-8 24 -8 24 0 0 13 -50 20 -61 10z"/>
<path d="M3301 1244 c0 -11 3 -14 6 -6 3 7 2 16 -1 19 -3 4 -6 -2 -5 -13z"/>
<path d="M3330 1249 c-13 -9 -13 -10 2 -6 9 3 19 1 22 -6 2 -7 5 -4 5 6 1 20
-7 21 -29 6z"/>
<path d="M3373 1245 c0 -7 6 -12 13 -12 7 0 11 4 8 8 -2 4 10 10 28 12 28 4
26 4 -8 4 -24 0 -41 -6 -41 -12z"/>
<path d="M1138 1213 c7 -3 16 -2 19 1 4 3 -2 6 -13 5 -11 0 -14 -3 -6 -6z"/>
<path d="M1198 1213 c7 -3 16 -2 19 1 4 3 -2 6 -13 5 -11 0 -14 -3 -6 -6z"/>
<path d="M2652 1200 c0 -14 2 -19 5 -12 2 6 2 18 0 25 -3 6 -5 1 -5 -13z"/>
<path d="M1487 1192 c-22 -4 -22 -20 0 -24 32 -6 93 4 93 16 0 10 -55 15 -93
8z"/>
<path d="M1866 1190 c-45 -14 -66 -39 -66 -80 0 -44 27 -73 90 -95 74 -26 101
-63 61 -85 -27 -14 -75 -13 -115 4 -30 13 -34 12 -46 -7 -10 -17 -10 -22 6
-34 46 -34 176 -30 206 7 51 63 30 112 -69 160 -86 42 -90 45 -73 65 15 18 72
20 102 4 21 -11 37 1 38 28 0 27 -85 48 -134 33z"/>
<path d="M3563 1189 c-54 -16 -78 -72 -52 -121 6 -11 44 -35 85 -54 75 -34 90
-54 62 -82 -16 -16 -87 -15 -120 2 -25 13 -29 13 -38 -4 -14 -26 -13 -28 20
-45 17 -9 55 -15 90 -15 55 0 65 3 91 29 59 60 30 129 -69 164 -57 21 -77 39
-68 62 6 18 76 21 106 5 15 -8 21 -6 30 9 13 26 13 29 -7 39 -30 16 -96 21
-130 11z"/>
<path d="M786 1183 c-3 -3 -6 -11 -6 -17 0 -6 5 -4 10 4 6 9 10 10 10 3 0 -6
9 -11 20 -10 17 1 19 12 2 12 -4 0 -12 3 -18 7 -6 4 -14 5 -18 1z"/>
<path d="M1633 1174 c-8 -8 -9 -15 -3 -19 6 -3 10 0 10 7 0 9 3 9 10 -2 5 -8
10 -10 10 -5 0 23 -15 33 -27 19z"/>
<path d="M2124 1178 c-38 -18 -64 -79 -64 -147 0 -103 46 -161 127 -161 54 0
106 24 101 48 -4 17 -20 19 -70 6 -44 -10 -74 3 -92 40 -9 19 -16 37 -16 40 0
3 47 6 105 6 l105 0 0 33 c-1 42 -32 110 -61 131 -26 18 -102 21 -135 4z m115
-64 c36 -46 29 -54 -49 -54 -63 0 -70 2 -70 20 0 57 83 80 119 34z"/>
<path d="M2360 1029 l0 -160 26 3 26 3 2 111 c1 96 4 115 21 134 14 16 27 20
47 16 21 -4 28 -1 33 14 4 11 9 20 13 20 4 0 31 -68 61 -150 48 -134 56 -150
76 -150 16 0 26 8 33 28 46 126 102 285 102 288 0 2 -13 4 -29 4 -28 0 -30 -3
-67 -112 -20 -62 -39 -108 -41 -103 -2 6 -19 55 -38 110 l-34 100 -72 2 c-56
2 -77 -1 -91 -14 -17 -15 -18 -15 -18 0 0 11 -8 17 -25 17 l-25 0 0 -161z"/>
<path d="M2830 1030 l0 -161 28 3 27 3 0 155 0 155 -27 3 -28 3 0 -161z"/>
<path d="M2976 1160 c-76 -67 -64 -240 20 -278 44 -21 110 -15 141 12 27 24
27 24 9 45 -19 20 -19 20 -44 1 -33 -26 -55 -25 -89 4 -25 22 -28 31 -28 86 0
55 3 64 28 86 35 30 56 30 91 3 28 -22 28 -22 48 -2 19 20 19 20 -12 47 -47
39 -117 37 -164 -4z"/>
<path d="M3255 1168 c-36 -28 -55 -76 -55 -138 0 -101 48 -160 129 -160 29 0
59 8 80 21 31 19 33 22 18 36 -13 14 -21 14 -42 5 -58 -27 -112 -4 -130 56 -6
22 -6 22 99 22 l106 0 0 28 c0 50 -20 101 -51 126 -40 34 -113 36 -154 4z
m124 -54 c36 -46 29 -54 -49 -54 -63 0 -70 2 -70 20 0 57 83 80 119 34z"/>
<path d="M1298 1168 c-2 -6 -19 -11 -37 -10 -24 0 -35 -5 -42 -21 l-10 -22 5
22 c2 13 0 26 -6 29 -5 4 -8 -5 -6 -21 2 -20 9 -29 25 -31 17 -3 20 0 16 16
-6 24 0 25 21 4 15 -14 16 -14 16 0 0 22 17 20 23 -1 3 -10 5 -3 6 15 1 32 -4
42 -11 20z"/>
<path d="M1010 1148 c0 -19 2 -20 10 -8 9 13 11 13 20 0 6 -9 10 -11 10 -3 0
7 -9 17 -20 23 -17 9 -20 8 -20 -12z"/>
<path d="M963 1142 c1 -14 5 -18 11 -12 7 7 6 14 -1 21 -9 9 -12 7 -10 -9z"/>
<path d="M1140 1140 c0 -11 5 -20 10 -20 6 0 10 7 10 15 0 21 18 19 23 -2 4
-14 5 -12 6 5 1 17 -4 22 -24 22 -18 0 -25 -5 -25 -20z"/>
<path d="M1337 1136 c4 -17 3 -18 -6 -6 -9 13 -11 13 -11 -2 0 -12 9 -16 36
-15 20 1 32 3 25 5 -15 5 -14 29 2 35 6 2 -2 4 -19 4 -26 0 -31 -4 -27 -21z"/>
<path d="M1404 1145 c-7 -17 3 -35 19 -34 9 0 9 2 0 5 -7 3 -9 12 -6 20 5 13
7 13 14 2 7 -10 9 -9 9 5 0 21 -28 23 -36 2z"/>
<path d="M1518 1143 c12 -2 32 -2 45 0 12 2 2 4 -23 4 -25 0 -35 -2 -22 -4z"/>
<path d="M878 1133 c7 -3 16 -2 19 1 4 3 -2 6 -13 5 -11 0 -14 -3 -6 -6z"/>
<path d="M910 1128 c0 -11 12 -10 30 2 12 7 10 9 -8 7 -12 0 -22 -5 -22 -9z"/>
<path d="M1474 1119 c-3 -5 2 -9 10 -9 8 0 16 -10 18 -22 2 -17 11 -24 34 -26
36 -4 58 17 47 44 -6 15 -19 19 -55 21 -27 1 -50 -3 -54 -8z m94 -26 c-4 -20
-35 -30 -50 -15 -15 15 0 32 28 32 19 0 25 -5 22 -17z"/>
<path d="M1667 1113 c-4 -3 -7 -17 -7 -30 0 -21 4 -23 48 -22 26 1 39 3 29 6
-10 3 -22 16 -27 29 -9 23 -29 31 -43 17z m33 -23 c0 -11 -4 -20 -9 -20 -14 0
-23 18 -16 30 10 17 25 11 25 -10z"/>
<path d="M657 1053 c52 -211 70 -235 97 -136 29 103 31 104 51 24 17 -65 36
-94 51 -79 2 3 17 53 33 112 27 98 27 106 11 106 -14 0 -22 -16 -36 -76 -20
-83 -21 -82 -49 19 -11 36 -22 57 -31 57 -8 0 -16 -6 -19 -12 -2 -7 -12 -42
-22 -78 l-19 -65 -19 78 c-15 61 -22 77 -37 77 -15 0 -17 -5 -11 -27z"/>
<path d="M957 1062 c-35 -38 -8 -83 61 -102 43 -11 59 -34 41 -56 -14 -17 -81
-18 -97 -2 -9 9 -15 9 -24 -1 -20 -20 18 -41 74 -41 54 0 88 24 88 63 0 29
-23 51 -72 66 -40 13 -63 35 -53 51 8 13 72 13 80 0 5 -8 12 -7 22 1 13 11 13
14 -3 26 -27 20 -98 17 -117 -5z"/>
<path d="M1120 970 l0 -110 51 0 c45 0 55 4 85 34 28 28 34 42 34 76 0 34 -6
48 -34 76 -30 30 -40 34 -85 34 l-51 0 0 -110z m115 55 c50 -49 15 -135 -55
-135 l-30 0 0 80 0 80 30 0 c19 0 40 -9 55 -25z"/>
<path d="M1310 971 l0 -111 70 0 c56 0 70 3 70 15 0 11 -12 15 -50 15 -33 0
-50 4 -51 13 -1 6 -2 48 -3 92 -1 67 -4 80 -19 83 -15 3 -17 -7 -17 -107z"/>
<path d="M3120 1050 c0 -5 -3 -9 -7 -9 -5 1 -23 1 -40 0 -36 -1 -47 -27 -13
-27 11 0 20 5 20 11 0 5 5 3 10 -5 8 -12 10 -12 10 5 1 19 1 19 15 1 7 -10 20
-16 27 -13 10 4 10 6 1 6 -7 1 -13 6 -13 12 0 5 6 7 13 3 8 -5 8 -2 -2 9 -15
19 -21 21 -21 7z"/>
<path d="M1512 1041 c-8 -4 -12 -19 -10 -32 2 -19 10 -25 35 -27 36 -4 59 23
42 49 -7 11 -9 9 -9 -8 0 -32 -18 -38 -22 -6 -3 29 -16 37 -36 24z m18 -32 c0
-11 -4 -17 -10 -14 -5 3 -10 13 -10 21 0 8 5 14 10 14 6 0 10 -9 10 -21z"/>
<path d="M1662 990 c0 -36 2 -59 5 -52 3 7 22 12 46 12 22 0 37 3 33 8 -4 4
-22 7 -39 7 -27 0 -32 4 -32 25 0 21 6 26 40 31 l40 6 -42 2 c-23 0 -44 7 -46
14 -3 6 -5 -17 -5 -53z"/>
<path d="M1678 913 c13 -3 22 -12 22 -23 0 -11 -9 -20 -22 -23 -13 -2 0 -4 27
-4 28 0 40 2 28 4 -14 3 -23 12 -23 23 0 11 9 20 23 23 12 2 0 4 -28 4 -27 0
-40 -2 -27 -4z"/>
<path d="M1516 902 c-3 -5 1 -9 9 -9 8 0 12 4 9 9 -3 4 -7 8 -9 8 -2 0 -6 -4
-9 -8z"/>
<path d="M1586 902 c-3 -4 4 -9 15 -9 23 -2 25 3 4 10 -8 4 -16 3 -19 -1z"/>
<path d="M1970 835 c0 -9 5 -15 11 -13 6 2 11 8 11 13 0 5 -5 11 -11 13 -6 2
-11 -4 -11 -13z"/>
<path d="M1486 824 c-30 -29 -11 -62 48 -81 38 -12 57 -40 36 -53 -21 -13 -64
-12 -78 2 -8 8 -15 9 -22 2 -29 -29 80 -53 114 -25 19 16 21 64 4 78 -7 6 -30
16 -50 22 -39 13 -50 37 -22 48 8 3 26 1 39 -5 17 -8 26 -8 31 -1 17 29 -73
40 -100 13z"/>
<path d="M910 775 c0 -30 5 -55 10 -55 6 0 10 9 10 20 0 11 4 20 10 20 5 0 14
-9 20 -20 6 -11 15 -20 21 -20 6 0 6 7 -1 20 -8 14 -7 25 2 39 16 26 -5 51
-43 51 -28 0 -29 -1 -29 -55z m65 20 c0 -5 -10 -11 -22 -13 -16 -2 -23 2 -23
13 0 11 7 15 23 13 12 -2 22 -7 22 -13z"/>
<path d="M1000 775 l0 -55 33 1 c23 1 26 3 10 6 -27 5 -31 39 -5 46 16 4 16 5
0 6 -25 1 -23 31 2 31 11 0 20 5 20 10 0 6 -13 10 -30 10 -30 0 -30 -1 -30
-55z"/>
<path d="M1091 821 c-19 -12 -7 -39 24 -51 14 -5 25 -17 25 -26 0 -13 -6 -15
-30 -10 -18 3 -30 1 -30 -5 0 -6 16 -9 37 -7 50 4 56 31 14 56 -38 21 -39 32
-5 32 14 0 23 4 19 10 -8 12 -35 13 -54 1z"/>
<path d="M1170 820 c0 -5 7 -10 14 -10 11 0 16 -14 19 -47 l3 -48 2 48 c2 34
6 47 17 47 8 0 15 5 15 10 0 6 -16 10 -35 10 -19 0 -35 -4 -35 -10z"/>
<path d="M1311 780 c-1 -20 -3 -22 -11 -10 -6 9 -10 10 -10 3 0 -6 5 -15 10
-18 12 -7 24 19 17 37 -3 7 -6 2 -6 -12z"/>
<path d="M1350 793 c0 -6 5 -15 11 -19 8 -4 7 -9 -2 -15 -10 -6 -10 -9 -2 -9
6 0 15 5 18 10 5 8 11 8 20 0 10 -8 15 -8 21 1 4 7 3 9 -4 5 -6 -3 -13 -2 -17
4 -4 6 -10 8 -15 5 -5 -3 -13 3 -19 12 -6 10 -11 13 -11 6z"/>
<path d="M1390 796 c0 -2 7 -6 15 -10 8 -3 15 -1 15 4 0 6 -7 10 -15 10 -8 0
-15 -2 -15 -4z"/>
<path d="M1637 782 c-24 -26 -22 -87 3 -112 24 -24 49 -25 76 -5 20 15 17 17
-31 19 -20 1 -31 7 -33 19 -3 14 4 17 42 17 37 0 46 3 46 18 0 53 -68 82 -103
44z m61 -14 c19 -19 14 -28 -18 -28 -18 0 -30 5 -30 13 0 28 27 36 48 15z"/>
<path d="M1758 776 c-5 -36 3 -116 12 -116 5 0 10 24 12 52 3 44 7 54 28 65
25 12 25 11 49 -52 13 -36 29 -65 36 -65 12 0 55 102 55 129 0 28 -25 2 -38
-39 -16 -48 -16 -47 -42 23 -9 25 -13 27 -59 26 -42 -2 -50 -5 -53 -23z"/>
<path d="M1970 731 c0 -57 3 -71 15 -71 13 0 15 12 13 67 -2 42 -8 68 -15 71
-10 3 -13 -15 -13 -67z"/>
<path d="M2031 786 c-7 -8 -14 -30 -18 -48 -4 -27 0 -41 20 -64 22 -25 28 -27
53 -19 34 12 30 31 -5 27 -28 -4 -41 12 -41 50 0 32 27 51 52 37 18 -10 34 4
23 21 -9 15 -71 12 -84 -4z"/>
<path d="M2156 784 c-23 -23 -21 -89 4 -114 28 -28 80 -24 80 6 0 10 -7 13
-25 8 -25 -6 -55 9 -55 27 0 5 23 9 51 9 51 0 51 0 44 27 -4 16 -11 34 -17 40
-15 18 -63 16 -82 -3z m62 -16 c19 -19 14 -28 -18 -28 -18 0 -30 5 -30 13 0
28 27 36 48 15z"/>
<path d="M2280 785 c-18 -22 -4 -45 38 -64 48 -22 42 -45 -8 -38 -29 4 -40 1
-40 -8 0 -26 71 -33 94 -9 27 27 19 52 -24 74 -43 22 -45 43 -5 38 13 -2 25 2
27 7 5 18 -67 18 -82 0z"/>
<path d="M1331 774 c0 -11 3 -14 6 -6 3 7 2 16 -1 19 -3 4 -6 -2 -5 -13z"/>
<path d="M736 732 c-3 -5 1 -9 9 -9 8 0 12 4 9 9 -3 4 -7 8 -9 8 -2 0 -6 -4
-9 -8z"/>
<path d="M776 725 c4 -8 8 -15 10 -15 2 0 4 7 4 15 0 8 -4 15 -10 15 -5 0 -7
-7 -4 -15z"/>
<path d="M816 732 c-3 -4 4 -9 15 -9 23 -2 25 3 4 10 -8 4 -16 3 -19 -1z"/>
<path d="M1043 675 c0 -10 10 -15 29 -15 21 0 27 4 22 13 -6 9 -5 9 7 0 13
-10 16 -10 16 2 0 18 -34 20 -40 3 -3 -10 -7 -10 -19 -1 -12 10 -15 10 -15 -2z"/>
<path d="M1135 681 c-3 -5 -2 -12 3 -15 5 -3 9 1 9 9 0 17 -3 19 -12 6z"/>
<path d="M1160 680 c0 -5 7 -7 15 -4 8 4 15 8 15 10 0 2 -7 4 -15 4 -8 0 -15
-4 -15 -10z"/>
<path d="M1200 679 c0 -5 5 -7 10 -4 6 3 10 8 10 11 0 2 -4 4 -10 4 -5 0 -10
-5 -10 -11z"/>
<path d="M1296 661 c-4 -7 -5 -15 -2 -18 9 -9 19 4 14 18 -4 11 -6 11 -12 0z"/>
<path d="M1688 623 c7 -3 16 -2 19 1 4 3 -2 6 -13 5 -11 0 -14 -3 -6 -6z"/>
<path d="M1728 623 c6 -2 18 -2 25 0 6 3 1 5 -13 5 -14 0 -19 -2 -12 -5z"/>
<path d="M808 609 c-10 -5 -18 -21 -18 -34 0 -19 9 -29 37 -42 20 -10 38 -23
40 -30 6 -16 -33 -26 -56 -14 -14 8 -22 8 -27 0 -10 -16 15 -29 58 -29 27 0
40 5 48 20 17 31 4 55 -40 75 -43 19 -44 37 -2 35 43 -3 48 0 28 15 -23 17
-44 19 -68 4z"/>
<path d="M939 601 c-30 -24 -33 -89 -5 -120 23 -25 68 -27 87 -4 13 15 11 16
-18 10 -22 -4 -37 -2 -48 9 -25 26 -17 34 35 34 44 0 50 3 50 20 0 24 -42 70
-63 70 -8 0 -25 -9 -38 -19z m69 -33 c3 -15 -4 -18 -32 -18 -38 0 -44 8 -24
28 17 17 52 11 56 -10z"/>
<path d="M1088 613 c-28 -4 -28 -5 -28 -79 0 -59 3 -74 15 -74 12 0 15 13 15
60 0 56 2 61 26 71 15 5 28 8 30 6 2 -1 13 -31 26 -67 13 -35 28 -65 35 -67 6
-2 20 20 31 49 33 90 35 98 19 98 -9 0 -20 -18 -27 -45 -7 -25 -16 -45 -20
-45 -4 0 -12 18 -19 40 -6 21 -15 41 -19 43 -15 9 -58 13 -84 10z"/>
<path d="M1367 608 c-57 -44 -33 -148 33 -148 31 0 58 24 40 35 -6 4 -17 2
-24 -4 -34 -28 -69 28 -47 75 11 25 39 32 58 13 8 -8 13 -7 18 2 9 14 -20 39
-45 39 -9 0 -24 -6 -33 -12z"/>
<path d="M1490 600 c-27 -27 -28 -100 -2 -123 19 -18 48 -22 76 -11 27 10 18
27 -10 20 -18 -5 -32 -2 -45 10 -30 27 -23 34 31 34 47 0 50 2 50 25 0 30 -32
65 -60 65 -11 0 -29 -9 -40 -20z m70 -30 c10 -18 8 -20 -25 -20 -22 0 -35 5
-35 13 0 33 44 37 60 7z"/>
<path d="M1290 534 c0 -56 3 -75 13 -71 18 6 19 147 0 147 -10 0 -13 -19 -13
-76z"/>
<path d="M846 417 c3 -10 9 -15 12 -12 3 3 0 11 -7 18 -10 9 -11 8 -5 -6z"/>
<path d="M1046 417 c3 -10 9 -15 12 -12 3 3 0 11 -7 18 -10 9 -11 8 -5 -6z"/>
<path d="M876 412 c-3 -5 1 -9 9 -9 8 0 15 4 15 9 0 4 -4 8 -9 8 -6 0 -12 -4
-15 -8z"/>
<path d="M930 412 c0 -11 69 -12 76 -1 3 5 -13 9 -35 9 -23 0 -41 -4 -41 -8z"/>
</g>
</svg>
